# xmcd
#
# Track frame offsets: 
#        150
#        26612
#        48250
#        71965
#        101007
#        118512
#        144227
#        177722
#
# Disc length: 2650 seconds
#
# Revision: 1
# Processed by: cddbd v1.5.2PL0 Copyright (c) Steve Scherf et al.
# Submitted via: ExactAudioCopy v0.95b3
#
DISCID=710a5808
DTITLE=Jimmy Smith - Lonesome Road (Japan BN Works) {TOCJ-1615}
DYEAR=1957
DGENRE=Jazz
TTITLE0=Margie
TTITLE1=Lonesome Road
TTITLE2=I Want a Little Girl
TTITLE3=Diane
TTITLE4=Blue Lou
TTITLE5=Our Love Is Here to Stay
TTITLE6=Danny Boy
TTITLE7=Taking a Chance on Love
EXTD=YEAR: 1957
EXTT0=
EXTT1=
EXTT2=
EXTT3=
EXTT4=
EXTT5=
EXTT6=
EXTT7=
PLAYORDER=
